# xmcd
#
# Track frame offsets:
#	150
#	14778
#	29810
#	39586
#	53632
#	69287
#	81407
#	95248
#	109984
#	123671
#	139396
#	157479
#	170623
#	182666
#	193368
#	207271
#	225023
#	236530
#	248034
#	264153
#	278903
#	292531
#	307605
#	321499
#	333023
#	345039
#
# Disc length: 4760 seconds
#
# Revision: 0
# Processed by: cddbd v1.5.1PL2 Copyright (c) Steve Scherf et al.
# Submitted via: audiograbber 1.83.01
#
DISCID=7a12961a
DTITLE=Kapa< Vs Montez de Durango - Duranguense
DYEAR=1900
DGENRE=Duranguense
TTITLE0=Kpaz - Pero te vas a arrepentir
TTITLE1=Dinastia - Te quiero para mi
TTITLE2=Montez - Ven conmigo
TTITLE3=Kpaz - Si tu te fueras de mi
TTITLE4=Dinastia - No puedo olvidarte
TTITLE5=Montez - Adios amor te vas
TTITLE6=Kpaz - Mi credo
TTITLE7=Dinastia - Una desepcion
TTITLE8=Montez - Quiero saber de ti
TTITLE9=Kpaz - Volvere
TTITLE10=Dinastia - No te olvidare
TTITLE11=Montez - Lagrimas de cristal
TTITLE12=Kpaz - Lambalaya
TTITLE13=Dinastia - Y dicen
TTITLE14=Montez - Lastima de mi mujer
TTITLE15=Kpaz - Mi eterno amor secreto
TTITLE16=Dinastia - Imposible
TTITLE17=Montez - Vestida de color de rosa
TTITLE18=Kpaz - Con olor a hierba
TTITLE19=Dinastia - Despues de tanto
TTITLE20=Montez - El sube y el baja
TTITLE21=Kpaz - Muñeca de ojos de miel
TTITLE22=Dinastia - Adios amor adios
TTITLE23=Montez - La hierba se movia
TTITLE24=Kpaz - La vecinita
TTITLE25=Dinastia - Una noche me entrgue
EXTD=
EXTT0=
EXTT1=
EXTT2=
EXTT3=
EXTT4=
EXTT5=
EXTT6=
EXTT7=
EXTT8=
EXTT9=
EXTT10=
EXTT11=
EXTT12=
EXTT13=
EXTT14=
EXTT15=
EXTT16=
EXTT17=
EXTT18=
EXTT19=
EXTT20=
EXTT21=
EXTT22=
EXTT23=
EXTT24=
EXTT25=
PLAYORDER=
